<svg width="1319" height="608" viewBox="0 0 1319 608" fill="none" xmlns="http://www.w3.org/2000/svg">
<rect x="429.475" y="140" width="73.5446" height="282.299" rx="15" transform="rotate(32.5 429.475 140)" fill="#8B4AC2"/>
<rect x="373.517" y="227.606" width="73.5446" height="220.579" rx="15" transform="rotate(32.5 373.517 227.606)" fill="#A467D9"/>
<rect x="226.88" y="395.4" width="73.5446" height="106.872" rx="15" transform="rotate(-56.5 226.88 395.4)" fill="#B981E9"/>
<rect x="162.283" y="352.796" width="73.5446" height="110.784" rx="15" transform="rotate(-56.5 162.283 352.796)" fill="#D0A5F5"/>
<rect x="137" y="336" width="73.5446" height="70.0121" rx="15" transform="rotate(-56.5 137 336)" fill="#EEDAFF"/>
<path d="M672.062 282.672C668.723 280.816 665.63 279.27 662.785 278.033C660.002 276.734 657.281 275.683 654.621 274.879C651.962 274.013 649.302 273.395 646.643 273.023C643.983 272.652 641.169 272.467 638.2 272.467C634.489 272.467 631.088 273.023 627.995 274.137C624.965 275.25 622.336 276.734 620.109 278.59C617.883 280.445 616.151 282.579 614.914 284.991C613.739 287.403 613.151 289.877 613.151 292.413C613.151 294.949 613.492 297.268 614.172 299.371C614.914 301.412 616.368 303.36 618.532 305.216C620.697 307.009 623.789 308.803 627.81 310.597C631.83 312.328 637.149 314.153 643.767 316.07C649.89 317.864 655.301 319.967 660.002 322.379C664.764 324.729 668.754 327.451 671.97 330.543C675.186 333.635 677.629 337.161 679.299 341.119C680.969 345.077 681.804 349.562 681.804 354.571C681.804 360.818 680.567 366.508 678.093 371.642C675.681 376.713 672.341 381.104 668.073 384.815C663.868 388.465 658.951 391.31 653.322 393.351C647.694 395.33 641.726 396.319 635.417 396.319C630.964 396.319 626.604 396.01 622.336 395.392C618.13 394.773 614.141 393.907 610.368 392.794C606.657 391.681 603.225 390.382 600.07 388.897C596.916 387.351 594.164 385.65 591.813 383.795L595.988 364.776C602.173 370.157 608.544 374.054 615.1 376.466C621.717 378.878 628.49 380.084 635.417 380.084C639.128 380.084 642.715 379.558 646.179 378.507C649.642 377.455 652.704 375.94 655.363 373.961C658.023 371.92 660.157 369.446 661.765 366.539C663.373 363.57 664.177 360.2 664.177 356.427C664.177 354.015 663.775 351.726 662.971 349.562C662.229 347.335 660.682 345.17 658.332 343.067C655.982 340.965 652.611 338.893 648.22 336.852C643.828 334.749 638.015 332.615 630.778 330.45C623.542 328.285 617.635 325.904 613.059 323.307C608.482 320.709 604.895 317.895 602.297 314.864C599.699 311.772 597.906 308.494 596.916 305.03C595.988 301.505 595.524 297.763 595.524 293.805C595.524 289.846 596.328 285.672 597.937 281.28C599.606 276.889 602.204 272.838 605.729 269.127C609.255 265.416 613.77 262.354 619.274 259.942C624.779 257.468 631.397 256.231 639.128 256.231C642.715 256.231 646.055 256.386 649.147 256.695C652.302 257.005 655.332 257.499 658.239 258.18C661.208 258.86 664.115 259.726 666.96 260.777C669.805 261.829 672.743 263.097 675.773 264.581L672.062 282.672Z" fill="#EEDAFF"/>
<path d="M725.964 320.987L777.917 258.551H800.183L743.962 322.286L806.213 394H783.483L725.964 327.481V394H706.945C707.626 390.289 708.028 384.939 708.151 377.95C708.275 370.899 708.337 362.797 708.337 353.644V298.907C708.337 289.754 708.275 281.682 708.151 274.693C708.028 267.643 707.626 262.262 706.945 258.551H725.964V320.987Z" fill="#D0A5F5"/>
<path d="M930.065 258.551C929.447 262.262 929.045 267.519 928.859 274.322C928.736 281.064 928.674 289.259 928.674 298.907V346.222C928.674 353.767 927.684 360.632 925.705 366.817C923.726 372.94 920.695 378.198 916.613 382.589C912.593 386.98 907.491 390.382 901.306 392.794C895.121 395.144 887.854 396.319 879.504 396.319C871.031 396.319 863.671 395.144 857.424 392.794C851.239 390.382 846.105 386.98 842.023 382.589C837.941 378.198 834.88 372.94 832.839 366.817C830.86 360.632 829.87 353.767 829.87 346.222V298.907C829.87 289.754 829.777 281.682 829.592 274.693C829.468 267.643 829.097 262.262 828.479 258.551H847.497V342.047C847.497 348.108 848.023 353.582 849.074 358.468C850.126 363.292 851.888 367.436 854.362 370.899C856.836 374.301 860.114 376.93 864.196 378.785C868.278 380.579 873.381 381.476 879.504 381.476C885.503 381.476 890.513 380.579 894.533 378.785C898.553 376.93 901.77 374.301 904.182 370.899C906.656 367.436 908.418 363.292 909.47 358.468C910.521 353.582 911.047 348.108 911.047 342.047V258.551H930.065Z" fill="#B981E9"/>
<path d="M1001.87 378.692C1006.45 378.692 1010.78 378.692 1014.86 378.692C1018.94 378.631 1022.72 378.569 1026.18 378.507C1029.64 378.383 1032.73 378.229 1035.46 378.043C1038.18 377.857 1040.47 377.61 1042.32 377.301V394H962.072C962.753 390.289 963.155 384.939 963.278 377.95C963.402 370.899 963.464 362.797 963.464 353.644V298.907C963.464 289.754 963.402 281.682 963.278 274.693C963.155 267.643 962.753 262.262 962.072 258.551H981.091V378.692H1001.87Z" fill="#A467D9"/>
<path d="M1063.66 351.788V287.96C1063.66 283.631 1063.6 279.61 1063.47 275.899C1063.41 272.127 1063.29 268.756 1063.1 265.787C1062.92 262.818 1062.64 260.406 1062.27 258.551C1063.57 258.489 1065.21 258.427 1067.18 258.365C1069.23 258.242 1071.45 258.149 1073.86 258.087C1076.34 258.025 1078.9 257.963 1081.56 257.901C1084.29 257.84 1086.98 257.809 1089.64 257.809C1092.36 257.747 1094.99 257.716 1097.52 257.716C1100.06 257.654 1102.38 257.623 1104.48 257.623C1106.95 257.623 1109.77 257.778 1112.92 258.087C1116.14 258.334 1119.48 258.86 1122.94 259.664C1126.47 260.468 1130.05 261.612 1133.7 263.097C1137.41 264.519 1140.97 266.406 1144.37 268.756C1147.84 271.106 1151.08 273.951 1154.11 277.291C1157.14 280.631 1159.77 284.589 1162 289.166C1164.29 293.743 1166.08 299.031 1167.38 305.03C1168.74 310.968 1169.42 317.74 1169.42 325.348C1169.42 334.563 1168.4 342.696 1166.36 349.747C1164.32 356.736 1161.57 362.797 1158.1 367.931C1154.7 373.064 1150.74 377.363 1146.23 380.826C1141.71 384.29 1136.98 387.073 1132.03 389.176C1127.09 391.279 1122.08 392.763 1117 393.629C1111.93 394.495 1107.14 394.928 1102.62 394.928C1101.14 394.928 1099.41 394.897 1097.43 394.835C1095.51 394.835 1093.47 394.804 1091.31 394.742C1089.14 394.742 1086.91 394.711 1084.63 394.649C1082.34 394.588 1080.11 394.526 1077.95 394.464C1072.87 394.34 1067.65 394.186 1062.27 394C1062.64 392.145 1062.89 389.763 1063.01 386.856C1063.2 383.95 1063.32 380.672 1063.38 377.022C1063.5 373.373 1063.57 369.415 1063.57 365.147C1063.63 360.818 1063.66 356.365 1063.66 351.788ZM1081.29 378.692C1083.45 378.878 1086.26 379.094 1089.73 379.342C1093.25 379.527 1097.24 379.62 1101.7 379.62C1105.84 379.62 1109.92 379.218 1113.94 378.414C1118.02 377.61 1121.89 376.342 1125.54 374.61C1129.25 372.817 1132.68 370.528 1135.84 367.745C1138.99 364.962 1141.71 361.653 1144 357.818C1146.29 353.922 1148.08 349.438 1149.38 344.366C1150.68 339.295 1151.33 333.574 1151.33 327.203C1151.33 316.812 1150 308.123 1147.34 301.134C1144.74 294.145 1141.22 288.548 1136.76 284.342C1132.31 280.074 1127.09 277.044 1121.09 275.25C1115.15 273.395 1108.84 272.467 1102.16 272.467C1100.61 272.467 1098.88 272.498 1096.96 272.56C1095.05 272.56 1093.1 272.59 1091.12 272.652C1089.2 272.714 1087.38 272.776 1085.65 272.838C1083.91 272.838 1082.46 272.869 1081.29 272.931V378.692Z" fill="#8B4AC2"/>
</svg>
